<svg width="24" height="24" viewBox="0 0 24 24" fill="none" xmlns="http://www.w3.org/2000/svg">
<g clip-path="url(#clip0_1327_22186)">
<path d="M0.815049 11.9943C0.815049 10.1276 1.23205 8.41093 2.06605 6.84427C2.90005 5.2776 4.01546 3.98627 5.4123 2.97027L2.81505 2.97027L2.81505 0.791016L9.09005 0.791016L9.09005 7.06602L6.91055 7.06602L6.91055 4.59102C5.73455 5.39102 4.7888 6.43918 4.0733 7.73552C3.35796 9.03202 3.0003 10.4516 3.0003 11.9943C3.0003 13.2323 3.2338 14.3951 3.7008 15.4828C4.1678 16.5706 4.80346 17.5206 5.6078 18.3328C6.4123 19.1451 7.35838 19.7908 8.44605 20.2698C9.53371 20.7488 10.7025 20.9923 11.9525 21.0003L11.9525 23.1855C10.4079 23.1775 8.95996 22.8781 7.6088 22.2873C6.25747 21.6963 5.0768 20.8918 4.0668 19.874C3.05696 18.856 2.26255 17.6703 1.68355 16.317C1.10455 14.9638 0.815049 13.5229 0.815049 11.9943ZM12.048 0.815016C13.5767 0.815016 15.0157 1.10743 16.365 1.69227C17.7142 2.27727 18.8958 3.07777 19.9098 4.09377C20.9238 5.10977 21.7233 6.29635 22.3083 7.65352C22.8931 9.01085 23.1855 10.4598 23.1855 12.0003C23.1855 13.8669 22.7665 15.5856 21.9285 17.1563C21.0905 18.7269 19.9771 20.0163 18.5883 21.0243L21.1855 21.0243L21.1855 23.2095L14.9105 23.2095L14.9105 16.9345L17.09 16.9345L17.09 19.4095C18.278 18.5975 19.2267 17.5393 19.936 16.235C20.6455 14.9307 21.0003 13.5191 21.0003 12.0003C21.0003 10.7623 20.7668 9.59943 20.2998 8.51177C19.8328 7.4241 19.1971 6.4741 18.3928 5.66177C17.5883 4.84943 16.6422 4.20377 15.5545 3.72477C14.4669 3.24577 13.298 3.00227 12.048 2.99427L12.048 0.815016ZM6.0003 11.9703C6.0003 12.3363 6.12813 12.6471 6.3838 12.9028C6.6393 13.1583 6.95005 13.286 7.31605 13.286C7.68205 13.286 7.99496 13.1583 8.2548 12.9028C8.5148 12.6471 8.6448 12.3363 8.6448 11.9703C8.6448 11.6044 8.51805 11.2947 8.26455 11.041C8.01088 10.7873 7.70105 10.6605 7.33505 10.6605C6.96905 10.6605 6.65513 10.7873 6.3933 11.041C6.1313 11.2947 6.0003 11.6044 6.0003 11.9703ZM9.8123 11.0105L9.8123 12.961C10.3883 12.961 10.8293 13.0289 11.1353 13.1648C11.4413 13.3004 11.813 13.5908 12.2503 14.036C12.7938 14.5795 13.2507 14.9541 13.621 15.1598C13.9912 15.3654 14.4363 15.4683 14.9563 15.4683C15.8896 15.4683 16.6323 15.1379 17.1843 14.4773C17.7363 13.8164 18.0123 13.0047 18.0123 12.042C18.0123 11.1808 17.7846 10.4403 17.3293 9.82027C16.8741 9.20043 16.2325 8.75118 15.4045 8.47252L14.6748 10.248C15.0961 10.3687 15.4515 10.5865 15.7408 10.9015C16.0301 11.2167 16.1748 11.5869 16.1748 12.0123C16.1748 12.4264 16.0545 12.7747 15.814 13.057C15.5737 13.3395 15.2548 13.4808 14.8573 13.4808C14.586 13.4808 14.3096 13.4091 14.0283 13.2658C13.747 13.1224 13.4385 12.86 13.103 12.4785C12.5957 11.9085 12.1189 11.5213 11.6725 11.317C11.2262 11.1127 10.6061 11.0105 9.8123 11.0105Z" fill="#CFECFA"/>
</g>
<defs>
<clipPath id="clip0_1327_22186">
<rect width="24" height="24" fill="white" transform="translate(24 1.04907e-06) rotate(90)"/>
</clipPath>
</defs>
</svg>
